<svg width="191" height="56" viewBox="0 0 191 56" fill="none" xmlns="http://www.w3.org/2000/svg">
<g clip-path="url(#clip0_3_18377)">
<path d="M16.9955 12.6242H14.378C9.62278 12.6242 7.11867 15.025 7.11867 18.5774C7.11867 22.6078 8.8506 24.4742 12.4192 26.8751L15.3486 28.8414L6.87873 41.4432H0.574829L8.16786 30.1689C3.78349 27.0532 1.33173 24.0375 1.33173 18.8968C1.33173 12.4655 5.8099 8.11792 14.3169 8.11792H22.7846V41.4454H16.9759V12.6242H16.9955ZM46.7285 17.3281V41.4454H41.0092V31.3813H33.3551V41.4454H27.6358V17.3281H33.3551V26.8751H41.0092V17.3281H46.7285ZM72.5745 46.9445H67.274V41.4258H54.4197V46.9445H49.1192V36.9304H50.9122C52.9255 32.9 53.3247 25.2781 53.3247 19.3835V17.3194H70.0224V36.9304H72.5745V46.9445ZM64.3031 21.8343H58.2457V22.5492C58.2457 26.7165 57.8094 33.2868 56.2127 36.9391H64.3031V21.8343ZM85.4266 41.9016C78.1149 41.9016 73.9683 37.8321 73.9683 29.4367C73.9683 22.1516 77.297 16.8349 84.2727 16.8349C89.992 16.8349 93.698 20.0092 93.698 28.3873V31.403H79.8883C80.1261 35.4334 81.7206 37.3976 85.9065 37.3976C88.6963 37.3976 91.6847 36.346 93.4581 35.1358V39.7984C91.785 40.95 89.0933 41.9016 85.4266 41.9016ZM79.8883 27.1923H87.8784V26.7186C87.8784 23.7029 87.0058 21.3607 84.1702 21.3607C81.4414 21.3368 80.0476 23.3618 79.8883 27.1923ZM103.283 29.5953V41.4454H97.5436V17.3281H103.283V28.4438L111.384 17.3281H117.164L109.074 28.4438L118.259 41.4258H111.752L103.283 29.5953ZM117.93 29.3976C117.93 22.0516 121.736 16.8327 129.054 16.8327C131.89 16.8327 134.017 17.3086 135.212 17.9821V22.8273C134.056 22.1124 131.883 21.3368 129.672 21.3368C125.924 21.3368 123.852 24.0179 123.852 29.2585C123.852 34.2406 125.547 37.415 129.632 37.415C132.043 37.415 133.777 36.8001 135.212 35.7876V40.4329C133.816 41.4454 131.94 41.9212 129.292 41.9212C121.636 41.9016 117.928 37.4562 117.928 29.3976H117.93Z" fill="#262633"/>
</g>
<g clip-path="url(#clip1_3_18377)">
<path d="M190.225 25.2022C190.225 43.1271 185.732 47.6022 167.736 47.6022C149.741 47.6022 145.248 43.1271 145.248 25.2022C145.248 7.27734 149.741 2.80225 167.736 2.80225C185.732 2.80225 190.225 7.27734 190.225 25.2022Z" fill="#262633"/>
<path fill-rule="evenodd" clip-rule="evenodd" d="M160.06 38.6434V11.7634H155.368V38.6434H160.06ZM175.559 12.4725C174.038 11.989 172.388 11.7634 170.608 11.7634H164.298V38.6756H170.22C172.064 38.6756 173.811 38.3533 175.364 37.7732C176.918 37.193 178.277 36.3228 179.409 35.1625C180.542 34.0022 181.415 32.5841 182.062 30.9082C182.677 29.2 183.001 27.2661 183.001 25.0745C183.001 22.5928 182.71 20.4978 182.062 18.8218C181.448 17.1459 180.574 15.76 179.474 14.7286C178.374 13.6972 177.079 12.9237 175.559 12.4725ZM173.294 34.3568C172.258 34.7758 171.093 35.0014 169.831 35.0014V34.9692H168.99V15.3732H170.22C171.417 15.3732 172.517 15.5344 173.488 15.8567C174.491 16.179 175.332 16.7269 176.044 17.4682C176.756 18.2095 177.306 19.2086 177.694 20.4333C178.082 21.6581 178.277 23.1729 178.277 24.9778C178.277 26.6538 178.05 28.1041 177.662 29.3611C177.241 30.6181 176.691 31.6494 175.947 32.4874C175.203 33.2932 174.329 33.9378 173.294 34.3568Z" fill="white"/>
</g>
<defs>
<clipPath id="clip0_3_18377">
<rect width="134.929" height="44.7999" fill="white" transform="translate(0.574829 2.80371)"/>
</clipPath>
<clipPath id="clip1_3_18377">
<rect width="44.9763" height="44.7999" fill="white" transform="translate(145.248 2.80371)"/>
</clipPath>
</defs>
</svg>
